<svg preserveAspectRatio="none" width="100%" height="100%" overflow="visible" style="display: block;" viewBox="0 0 31 20" fill="none" xmlns="http://www.w3.org/2000/svg">
<g id="logo">
<path id="Ellipse 17" d="M19.9286 10C19.9286 15.5228 15.4674 20 9.96428 20C4.46116 20 0 15.5228 0 10C0 4.47715 4.46116 0 9.96428 0C15.4674 0 19.9286 4.47715 19.9286 10Z" fill="var(--fill-0, #111111)"/>
<path id="Ellipse 18 (Stroke)" d="M29.8929 10C29.8929 5.0908 25.9274 1.11111 21.0357 1.11111C16.1441 1.11111 12.1786 5.0908 12.1786 10C12.1786 14.9092 16.1441 18.8889 21.0357 18.8889V20C15.5326 20 11.0714 15.5228 11.0714 10C11.0714 4.47715 15.5326 0 21.0357 0C26.5388 0 31 4.47715 31 10C31 15.5228 26.5388 20 21.0357 20V18.8889C25.9274 18.8889 29.8929 14.9092 29.8929 10Z" fill="var(--fill-0, #111111)"/>
</g>
</svg>
