<svg preserveAspectRatio="none" width="100%" height="100%" overflow="visible" style="display: block;" viewBox="0 0 90 14.0407" fill="none" xmlns="http://www.w3.org/2000/svg">
<g id="SYNERUS">
<path id="Vector" d="M84.375 13.712C83.3145 13.712 82.298 13.5731 81.3258 13.2953C80.3536 13.0049 79.5708 12.6324 78.9774 12.1779L80.019 9.86731C80.5872 10.2713 81.2564 10.6059 82.0266 10.8711C82.8094 11.1236 83.5985 11.2499 84.394 11.2499C85 11.2499 85.4861 11.1931 85.8523 11.0794C86.2311 10.9532 86.5089 10.7827 86.6856 10.5681C86.8624 10.3534 86.9508 10.1072 86.9508 9.82944C86.9508 9.4759 86.8119 9.19813 86.5341 8.99611C86.2563 8.78147 85.8902 8.61102 85.4356 8.48475C84.9811 8.34587 84.4761 8.2196 83.9205 8.10597C83.3776 7.97971 82.8283 7.8282 82.2728 7.65143C81.7299 7.47466 81.2311 7.24739 80.7766 6.96962C80.3221 6.69184 79.9496 6.32569 79.6592 5.87115C79.3814 5.41661 79.2425 4.8358 79.2425 4.12874C79.2425 3.37117 79.4445 2.68305 79.8486 2.06437C80.2652 1.43306 80.8839 0.934332 81.7046 0.568174C82.5379 0.189391 83.5796 0 84.8296 0C85.6629 0 86.4836 0.101008 87.2917 0.303026C88.0998 0.492418 88.8131 0.782819 89.4318 1.17423L88.4849 3.50375C87.8662 3.15022 87.2475 2.89138 86.6288 2.72724C86.0101 2.55048 85.4041 2.46209 84.8107 2.46209C84.2172 2.46209 83.7311 2.53154 83.3523 2.67042C82.9735 2.80931 82.7021 2.99239 82.5379 3.21966C82.3738 3.4343 82.2917 3.68683 82.2917 3.97723C82.2917 4.31813 82.4306 4.59591 82.7084 4.81055C82.9862 5.01257 83.3523 5.17671 83.8069 5.30297C84.2614 5.42923 84.7601 5.55549 85.3031 5.68175C85.8586 5.80802 86.4079 5.95322 86.9508 6.11736C87.5063 6.28149 88.0114 6.50245 88.4659 6.78023C88.9205 7.058 89.2866 7.42416 89.5644 7.8787C89.8548 8.33324 90 8.90773 90 9.60217C90 10.3471 89.7917 11.0289 89.375 11.6476C88.9583 12.2663 88.3333 12.765 87.5 13.1438C86.6793 13.5226 85.6377 13.712 84.375 13.712Z" fill="var(--fill-0, #111111)"/>
<path id="Vector_2" d="M70.9306 14.0407C69.0493 14.0407 67.5784 13.5167 66.5178 12.4687C65.4572 11.4208 64.9269 9.92457 64.9269 7.98015V0.55599H67.9951V7.86652C67.9951 9.12913 68.2539 10.0382 68.7716 10.5938C69.2892 11.1493 70.0152 11.4271 70.9496 11.4271C71.8839 11.4271 72.6099 11.1493 73.1276 10.5938C73.6453 10.0382 73.9041 9.12913 73.9041 7.86652V0.55599H76.9344V7.98015C76.9344 9.92457 76.4041 11.4208 75.3435 12.4687C74.2829 13.5167 72.8119 14.0407 70.9306 14.0407Z" fill="var(--fill-0, #111111)"/>
<path id="Vector_3" d="M51.9239 13.4847V0.227273H57.5867C59.4301 0.227273 60.8632 0.656561 61.8859 1.51514C62.9086 2.36109 63.42 3.53532 63.42 5.03783C63.42 6.02266 63.1864 6.87493 62.7193 7.59462C62.2521 8.30168 61.5892 8.8446 60.7306 9.22339C59.8721 9.60217 58.8493 9.79156 57.6625 9.79156H53.6284L54.9921 8.44688V13.4847H51.9239ZM60.3519 13.4847L57.0375 8.67415H60.314L63.6662 13.4847H60.3519ZM54.9921 8.78779L53.6284 7.34841H57.492C58.439 7.34841 59.1461 7.14639 59.6132 6.74235C60.0804 6.32569 60.314 5.75751 60.314 5.03783C60.314 4.30551 60.0804 3.73734 59.6132 3.3333C59.1461 2.92926 58.439 2.72725 57.492 2.72725H53.6284L54.9921 1.26893V8.78779Z" fill="var(--fill-0, #111111)"/>
<path id="Vector_4" d="M39.5964 13.4847V0.227273H49.6152V2.68937H42.6456V11.0226H49.8614V13.4847H39.5964ZM42.4183 7.95446V5.56812H48.8008V7.95446H42.4183Z" fill="var(--fill-0, #111111)"/>
<path id="Vector_5" d="M24.6795 13.4847V0.227273H27.2173L35.0392 9.77262H33.8082V0.227273H36.8385V13.4847H34.3195L26.4787 3.93935H27.7098V13.4847H24.6795Z" fill="var(--fill-0, #111111)"/>
<path id="Vector_6" d="M15.7583 13.4847V8.06809L16.4591 9.92414L10.6258 0.227273H13.8833L18.353 7.67037H16.478L20.9666 0.227273H23.9779L18.1447 9.92414L18.8265 8.06809V13.4847H15.7583Z" fill="var(--fill-0, #111111)"/>
<path id="Vector_7" d="M5.39767 13.712C4.33708 13.712 3.32067 13.5731 2.34846 13.2953C1.37625 13.0049 0.593428 12.6324 0 12.1779L1.04166 9.86731C1.60983 10.2713 2.27902 10.6059 3.04921 10.8711C3.83203 11.1236 4.62117 11.2499 5.41661 11.2499C6.02267 11.2499 6.50877 11.1931 6.87493 11.0794C7.25372 10.9532 7.53149 10.7827 7.70826 10.5681C7.88502 10.3534 7.97341 10.1072 7.97341 9.82944C7.97341 9.4759 7.83452 9.19813 7.55674 8.99611C7.27897 8.78147 6.91281 8.61102 6.45827 8.48475C6.00373 8.34587 5.49868 8.2196 4.94313 8.10597C4.40021 7.97971 3.85097 7.8282 3.29542 7.65143C2.7525 7.47466 2.25377 7.24739 1.79922 6.96962C1.34468 6.69184 0.972213 6.32569 0.681812 5.87115C0.404036 5.41661 0.265149 4.8358 0.265149 4.12874C0.265149 3.37117 0.467167 2.68305 0.871204 2.06437C1.28787 1.43306 1.90655 0.934332 2.72725 0.568174C3.56057 0.189391 4.60223 0 5.85221 0C6.68554 0 7.50624 0.101008 8.31431 0.303026C9.12238 0.492418 9.83576 0.782819 10.4544 1.17423L9.50748 3.50375C8.8888 3.15022 8.27012 2.89138 7.65144 2.72724C7.03276 2.55048 6.4267 2.46209 5.83328 2.46209C5.23985 2.46209 4.75374 2.53154 4.37496 2.67042C3.99617 2.80931 3.72471 2.99239 3.56057 3.21966C3.39643 3.4343 3.31436 3.68683 3.31436 3.97723C3.31436 4.31813 3.45325 4.59591 3.73102 4.81055C4.0088 5.01257 4.37496 5.17671 4.8295 5.30297C5.28404 5.42923 5.78277 5.55549 6.3257 5.68175C6.88125 5.80802 7.43048 5.95322 7.97341 6.11736C8.52896 6.28149 9.034 6.50245 9.48854 6.78023C9.94308 7.058 10.3092 7.42416 10.587 7.8787C10.8774 8.33324 11.0226 8.90773 11.0226 9.60217C11.0226 10.3471 10.8143 11.0289 10.3976 11.6476C9.98096 12.2663 9.35597 12.765 8.52264 13.1438C7.70194 13.5226 6.66029 13.712 5.39767 13.712Z" fill="var(--fill-0, #111111)"/>
</g>
</svg>
